<svg width="149" height="42" viewBox="0 0 149 42" fill="none" xmlns="http://www.w3.org/2000/svg">
<path d="M31.5294 14.2117C31.5294 18.8818 28.7623 22.9082 24.7793 24.735C26.4612 23.3496 27.5322 21.248 27.5322 18.896C27.5322 14.7642 24.2259 11.4042 20.112 11.3204C20.0574 11.3167 20.0075 11.3167 19.9529 11.3167C19.8983 11.3167 19.8485 11.3167 19.7939 11.3204C18.2673 11.4033 17.0588 12.6663 17.0588 14.2108V28.6814C17.0588 33.4748 13.1699 37.3637 8.37646 37.3637V14.2117C8.37646 7.81925 13.5605 2.63525 19.9529 2.63525C26.3454 2.63525 31.5294 7.81925 31.5294 14.2117Z" fill="white"/>
<path d="M53.5459 27V12.4H58.0659L61.4059 20.6H61.7859L65.0859 12.4H69.6859V27H66.4459V14.54L66.9059 14.58L63.0459 24.04H59.9259L56.0459 14.58L56.5459 14.54V27H53.5459ZM76.8999 27.36C76.1266 27.36 75.4199 27.22 74.7799 26.94C74.1533 26.66 73.6066 26.2733 73.1399 25.78C72.6733 25.2733 72.3133 24.68 72.0599 24C71.8199 23.32 71.6999 22.5867 71.6999 21.8V21.34C71.6999 20.5533 71.8133 19.82 72.0399 19.14C72.2799 18.46 72.6199 17.8667 73.0599 17.36C73.5133 16.84 74.0533 16.44 74.6799 16.16C75.3066 15.8667 76.0066 15.72 76.7799 15.72C77.6599 15.72 78.4199 15.9133 79.0599 16.3C79.6999 16.6733 80.1999 17.2333 80.5599 17.98C80.9199 18.7133 81.1199 19.62 81.1599 20.7L80.3199 19.92V12.4H83.5399V27H80.9999V22.46H81.4399C81.3999 23.5 81.1799 24.3867 80.7799 25.12C80.3933 25.8533 79.8666 26.4133 79.1999 26.8C78.5333 27.1733 77.7666 27.36 76.8999 27.36ZM77.6999 24.68C78.1933 24.68 78.6399 24.5733 79.0399 24.36C79.4533 24.1333 79.7799 23.8067 80.0199 23.38C80.2733 22.9533 80.3999 22.44 80.3999 21.84V21.1C80.3999 20.5133 80.2733 20.02 80.0199 19.62C79.7666 19.22 79.4333 18.9133 79.0199 18.7C78.6066 18.4867 78.1599 18.38 77.6799 18.38C77.1466 18.38 76.6666 18.52 76.2399 18.8C75.8266 19.0667 75.4999 19.44 75.2599 19.92C75.0199 20.3867 74.8999 20.9333 74.8999 21.56C74.8999 22.2 75.0199 22.7533 75.2599 23.22C75.4999 23.6867 75.8333 24.0467 76.2599 24.3C76.6866 24.5533 77.1666 24.68 77.6999 24.68ZM85.5424 27V23.42H89.0624V27H85.5424ZM91.2912 27V12.28H94.5712V27H91.2912ZM100.151 27L95.8712 20.72H99.4712L103.951 27H100.151ZM93.6912 22.32V19.74H97.2912C97.7712 19.74 98.1845 19.6467 98.5312 19.46C98.8912 19.26 99.1645 18.9867 99.3512 18.64C99.5512 18.28 99.6512 17.8667 99.6512 17.4C99.6512 16.9333 99.5512 16.5267 99.3512 16.18C99.1645 15.82 98.8912 15.5467 98.5312 15.36C98.1845 15.16 97.7712 15.06 97.2912 15.06H93.6912V12.28H97.0312C98.2445 12.28 99.2979 12.4667 100.191 12.84C101.085 13.2 101.771 13.74 102.251 14.46C102.731 15.18 102.971 16.0867 102.971 17.18V17.5C102.971 18.58 102.725 19.48 102.231 20.2C101.751 20.9067 101.065 21.44 100.171 21.8C99.2912 22.1467 98.2445 22.32 97.0312 22.32H93.6912ZM111.941 27V23.76H111.401V20.24C111.401 19.68 111.267 19.26 111.001 18.98C110.734 18.7 110.307 18.56 109.721 18.56C109.427 18.56 109.041 18.5667 108.561 18.58C108.081 18.5933 107.587 18.6133 107.081 18.64C106.574 18.6667 106.114 18.6933 105.701 18.72V16.02C106.007 15.9933 106.367 15.9667 106.781 15.94C107.194 15.9133 107.621 15.8933 108.061 15.88C108.501 15.8667 108.914 15.86 109.301 15.86C110.421 15.86 111.361 16.02 112.121 16.34C112.894 16.66 113.481 17.1467 113.881 17.8C114.281 18.44 114.481 19.2667 114.481 20.28V27H111.941ZM108.441 27.28C107.654 27.28 106.961 27.14 106.361 26.86C105.774 26.58 105.314 26.18 104.981 25.66C104.647 25.1267 104.481 24.4933 104.481 23.76C104.481 22.96 104.687 22.3067 105.101 21.8C105.514 21.28 106.094 20.9 106.841 20.66C107.587 20.4067 108.447 20.28 109.421 20.28H111.761V22.06H109.401C108.841 22.06 108.407 22.2 108.101 22.48C107.807 22.7467 107.661 23.1133 107.661 23.58C107.661 24.02 107.807 24.38 108.101 24.66C108.407 24.9267 108.841 25.06 109.401 25.06C109.761 25.06 110.081 25 110.361 24.88C110.654 24.7467 110.894 24.5267 111.081 24.22C111.267 23.9133 111.374 23.4867 111.401 22.94L112.161 23.74C112.094 24.5 111.907 25.14 111.601 25.66C111.307 26.18 110.894 26.58 110.361 26.86C109.841 27.14 109.201 27.28 108.441 27.28ZM124.516 27L121.056 21.88H119.516L123.976 16.04H127.336L123.136 21.48L123.176 19.92L128.116 27H124.516ZM116.796 27V12.4H119.996V27H116.796ZM129.689 27V16.04H132.889V27H129.689ZM128.229 18.4V16.04H132.889V18.4H128.229ZM130.929 14.96C130.329 14.96 129.882 14.8067 129.589 14.5C129.309 14.18 129.169 13.78 129.169 13.3C129.169 12.8067 129.309 12.4067 129.589 12.1C129.882 11.78 130.329 11.62 130.929 11.62C131.529 11.62 131.969 11.78 132.249 12.1C132.542 12.4067 132.689 12.8067 132.689 13.3C132.689 13.78 132.542 14.18 132.249 14.5C131.969 14.8067 131.529 14.96 130.929 14.96ZM142.189 27.36C141.295 27.36 140.509 27.1733 139.829 26.8C139.149 26.4133 138.615 25.86 138.229 25.14C137.842 24.42 137.635 23.54 137.609 22.5H137.989V27H135.449V12.4H138.649V19.82L137.889 20.78C137.929 19.6733 138.135 18.7467 138.509 18C138.895 17.24 139.422 16.6733 140.089 16.3C140.755 15.9133 141.515 15.72 142.369 15.72C143.115 15.72 143.789 15.86 144.389 16.14C145.002 16.4067 145.522 16.7933 145.949 17.3C146.375 17.7933 146.702 18.38 146.929 19.06C147.169 19.74 147.289 20.48 147.289 21.28V21.72C147.289 22.52 147.169 23.26 146.929 23.94C146.702 24.62 146.362 25.22 145.909 25.74C145.469 26.2467 144.935 26.6467 144.309 26.94C143.682 27.22 142.975 27.36 142.189 27.36ZM141.349 24.68C141.895 24.68 142.369 24.5467 142.769 24.28C143.182 24.0133 143.502 23.64 143.729 23.16C143.955 22.6667 144.069 22.1133 144.069 21.5C144.069 20.8733 143.955 20.3267 143.729 19.86C143.502 19.3933 143.182 19.0333 142.769 18.78C142.369 18.5133 141.895 18.38 141.349 18.38C140.869 18.38 140.415 18.4933 139.989 18.72C139.562 18.9467 139.215 19.2733 138.949 19.7C138.695 20.1133 138.569 20.62 138.569 21.22V21.96C138.569 22.5333 138.702 23.0267 138.969 23.44C139.249 23.84 139.602 24.1467 140.029 24.36C140.455 24.5733 140.895 24.68 141.349 24.68Z" fill="white"/>
<path d="M15.3145 17L39.6687 36.3129V36.3129C37.2858 39.3177 32.9182 39.8219 29.9134 37.4391L11 22.4408L15.3145 17Z" fill="white"/>
</svg>
